# xmcd
#
# Track frame offsets:
#	150
#	11318
#	26374
#	45993
#	60455
#	72811
#	87974
#	105109
#	118383
#	128363
#	131215
#	171624
#
# Disc length: 2836 seconds
#
# Revision: 0
# Processed by: cddbd v1.5.2PL0 Copyright (c) Steve Scherf et al.
# Submitted via: dBpowerAMP V4.0
#
DISCID=920b120c
DTITLE=Rory Block - Confessions of a blues singer
DYEAR=1900
DGENRE=
TTITLE0=If I had possession over judgement day
TTITLE1=Ramblin' on my mind
TTITLE2=Kassie Jones
TTITLE3=I am in the heavenly way
TTITLE4=Statesboro blues
TTITLE5=Long way from home
TTITLE6=Bo Weavil blues
TTITLE7=I'll go with him
TTITLE8=Titanic
TTITLE9=Silver slide moan
TTITLE10=Mother Marian
TTITLE11=Life song
EXTD=
EXTT0=
EXTT1=
EXTT2=
EXTT3=
EXTT4=
EXTT5=
EXTT6=
EXTT7=
EXTT8=
EXTT9=
EXTT10=
EXTT11=
PLAYORDER=
